<svg width="180" height="180" viewBox="0 0 180 180" fill="none" xmlns="http://www.w3.org/2000/svg">
    <rect width="180" height="180" fill="white"/>
    <path d="M40.2546 119.763C48.278 136.544 66.2413 136.673 70.1393 136.511H115.616C119.741 136.673 137.445 136.511 145.371 119.763C149.801 110.152 152.021 99.672 151.868 89.0916C151.868 50.4679 120.326 16.875 92.9102 16.875H92.7153C65.2993 16.875 33.7579 50.4679 33.7579 89.0592C33.5993 99.6505 35.8193 110.143 40.2546 119.763V119.763ZM92.6178 42.0616H92.9751C105.059 42.0616 118.962 65.5928 118.962 84.8722C118.962 104.152 105.091 112.071 92.9751 112.104H92.6178C80.534 112.104 66.6311 104.184 66.6311 84.8722C66.6311 65.5604 80.5665 42.1589 92.6178 42.0616Z" fill="#343434"/>
    <path d="M64.6174 151.831C64.6174 151.076 64.7661 150.329 65.0551 149.632C65.344 148.935 65.7675 148.302 66.3014 147.769C66.8353 147.235 67.4692 146.812 68.1667 146.523C68.8643 146.235 69.6119 146.086 70.367 146.086H115.259C116.014 146.086 116.762 146.235 117.459 146.523C118.157 146.812 118.791 147.235 119.325 147.769C119.858 148.302 120.282 148.935 120.571 149.632C120.86 150.329 121.009 151.076 121.009 151.831C121.009 153.354 120.403 154.816 119.325 155.893C118.246 156.97 116.784 157.576 115.259 157.576H70.367C68.8421 157.576 67.3797 156.97 66.3014 155.893C65.2232 154.816 64.6174 153.354 64.6174 151.831V151.831Z" fill="#343434"/>
</svg>
