<svg width="32" height="32" viewBox="0 0 32 32" fill="none" xmlns="http://www.w3.org/2000/svg">
    <rect width="32" height="32" fill="white"/>
    <path d="M7.15638 21.2913C8.58276 24.2744 11.7762 24.2975 12.4692 24.2687H20.554C21.2874 24.2975 24.4346 24.2687 25.8437 21.2913C26.6314 19.5827 27.026 17.7195 26.9987 15.8385C26.9987 8.97207 21.3913 3 16.5174 3H16.4827C11.6088 3 6.00141 8.97207 6.00141 15.8327C5.97321 17.7156 6.36787 19.5809 7.15638 21.2913V21.2913ZM16.4654 7.47761H16.5289C18.6771 7.47761 21.1488 11.6609 21.1488 15.0884C21.1488 18.5158 18.6829 19.9238 16.5289 19.9295H16.4654C14.3172 19.9295 11.8455 18.5216 11.8455 15.0884C11.8455 11.6552 14.3229 7.49492 16.4654 7.47761Z" fill="#343434"/>
    <path d="M11.4875 26.9921C11.4875 26.858 11.514 26.7252 11.5654 26.6013C11.6167 26.4774 11.692 26.3648 11.7869 26.27C11.8818 26.1751 11.9945 26.0999 12.1185 26.0486C12.2425 25.9972 12.3755 25.9708 12.5097 25.9708H20.4905C20.6247 25.9708 20.7576 25.9972 20.8817 26.0486C21.0057 26.0999 21.1183 26.1751 21.2133 26.27C21.3082 26.3648 21.3835 26.4774 21.4348 26.6013C21.4862 26.7252 21.5126 26.858 21.5126 26.9921C21.5126 27.263 21.4049 27.5228 21.2133 27.7143C21.0216 27.9058 20.7616 28.0134 20.4905 28.0134H12.5097C12.2386 28.0134 11.9786 27.9058 11.7869 27.7143C11.5952 27.5228 11.4875 27.263 11.4875 26.9921V26.9921Z" fill="#343434"/>
</svg>
