<svg width="256" height="31" viewBox="0 0 256 31" fill="none" xmlns="http://www.w3.org/2000/svg">
    <path d="M1.43314 22.669C3.2009 26.3661 7.15868 26.3947 8.01751 26.3589H18.0372C18.9461 26.3947 22.8467 26.3589 24.5929 22.669C25.5691 20.5514 26.0582 18.2423 26.0243 15.9112C26.0243 7.40138 19.075 0 13.0345 0H12.9916C6.95112 0 0.00175005 7.40138 0.00175005 15.904C-0.0332064 18.2376 0.455919 20.5492 1.43314 22.669ZM12.9701 5.54925H13.0488C15.7112 5.54925 18.7744 10.7338 18.7744 14.9815C18.7744 19.2293 15.7184 20.9742 13.0488 20.9813H12.9701C10.3077 20.9813 7.24456 19.2364 7.24456 14.9815C7.24456 10.7266 10.3149 5.5707 12.9701 5.54925Z" fill="white"/>
    <path d="M6.8009 29.7343C6.8009 29.568 6.83367 29.4034 6.89733 29.2499C6.96099 29.0963 7.0543 28.9568 7.17193 28.8392C7.28956 28.7217 7.42921 28.6285 7.5829 28.5649C7.7366 28.5012 7.90132 28.4685 8.06768 28.4685H17.9585C18.1249 28.4685 18.2896 28.5012 18.4433 28.5649C18.597 28.6285 18.7367 28.7217 18.8543 28.8392C18.9719 28.9568 19.0652 29.0963 19.1289 29.2499C19.1926 29.4034 19.2253 29.568 19.2253 29.7343C19.2253 30.0699 19.0919 30.3919 18.8543 30.6293C18.6167 30.8666 18.2945 31 17.9585 31H8.06768C7.73171 31 7.4095 30.8666 7.17193 30.6293C6.93437 30.3919 6.8009 30.0699 6.8009 29.7343Z" fill="white"/>
    <path d="M64.9836 9.67544H62.5272C62.3359 9.67298 62.146 9.71015 61.9686 9.78479C61.7912 9.85944 61.6298 9.97007 61.4937 10.1103C61.3576 10.2505 61.2495 10.4175 61.1757 10.6016C61.102 10.7857 61.064 10.9832 61.064 11.1827V23.2784C61.064 23.6781 60.9118 24.0615 60.6407 24.3442C60.3697 24.6269 60.0021 24.7857 59.6188 24.7857H58.2151C57.8318 24.7857 57.4642 24.6269 57.1931 24.3442C56.9221 24.0615 56.7698 23.6781 56.7698 23.2784V11.1827C56.7698 10.9848 56.7324 10.7888 56.6598 10.6059C56.5872 10.423 56.4807 10.2569 56.3465 10.1169C56.2123 9.97695 56.053 9.86593 55.8776 9.79018C55.7023 9.71443 55.5143 9.67544 55.3245 9.67544H52.9454C52.5704 9.66256 52.2149 9.49808 51.9541 9.21679C51.6933 8.93551 51.5475 8.55945 51.5477 8.16814V7.72153C51.5477 7.32177 51.7 6.93838 51.971 6.65571C52.2421 6.37304 52.6097 6.21423 52.993 6.21423H64.9895C65.3697 6.21913 65.7328 6.38009 66 6.66224C66.2672 6.94438 66.417 7.32498 66.417 7.72153V8.16814C66.417 8.56576 66.2664 8.94728 65.9979 9.2296C65.7294 9.51192 65.3648 9.67217 64.9836 9.67544Z" fill="white"/>
    <path d="M108.224 15.8802C108.251 17.4893 107.915 19.0836 107.241 20.544C106.643 21.8423 105.676 22.9345 104.462 23.6834C103.222 24.4271 101.8 24.8085 100.356 24.7843C98.9223 24.8113 97.5085 24.4431 96.2687 23.7197C95.071 23.0015 94.1058 21.9512 93.4895 20.6952C92.8015 19.2823 92.4427 17.731 92.4405 16.1585V15.1483C92.4069 13.5302 92.7387 11.9255 93.4111 10.4544C94.0123 9.15437 94.9835 8.06201 96.2024 7.31496C97.4535 6.59376 98.8712 6.21423 100.314 6.21423C101.757 6.21423 103.175 6.59376 104.426 7.31496C105.639 8.05987 106.611 9.14203 107.223 10.4302C107.911 11.876 108.258 13.4616 108.236 15.0636V15.8984L108.224 15.8802ZM103.799 15.0999C103.799 13.3014 103.499 11.9363 102.9 11.0048C102.627 10.5687 102.243 10.2136 101.787 9.97649C101.331 9.73934 100.821 9.62866 100.308 9.6559C98.1256 9.6559 96.9721 11.2972 96.8475 14.5797V15.9105C96.7657 17.3284 97.07 18.7419 97.7277 19.9996C97.9924 20.4545 98.3762 20.828 98.8374 21.0797C99.2986 21.3313 99.8197 21.4515 100.344 21.4271C100.854 21.4428 101.358 21.3208 101.805 21.0739C102.251 20.827 102.623 20.4643 102.882 20.0238C103.55 18.7865 103.863 17.3879 103.787 15.9831V15.0999H103.799Z" fill="white"/>
    <path d="M137.336 24.7857H135.826C135.41 24.7857 135.011 24.6269 134.717 24.3442C134.423 24.0615 134.258 23.6781 134.258 23.2784V7.72153C134.258 7.32177 134.423 6.93838 134.717 6.65571C135.011 6.37304 135.41 6.21423 135.826 6.21423H137.336C137.752 6.21423 138.151 6.37304 138.445 6.65571C138.739 6.93838 138.905 7.32177 138.905 7.72153V23.2784C138.905 23.6781 138.739 24.0615 138.445 24.3442C138.151 24.6269 137.752 24.7857 137.336 24.7857Z" fill="white"/>
    <path d="M170.817 21.338H175.524C175.718 21.338 175.911 21.377 176.091 21.4527C176.271 21.5284 176.435 21.6394 176.573 21.7793C176.71 21.9193 176.82 22.0854 176.894 22.2682C176.969 22.451 177.007 22.6469 177.007 22.8448V23.2789C177.007 23.6785 176.851 24.0617 176.573 24.3443C176.294 24.6269 175.917 24.7857 175.524 24.7857H166.409C166.214 24.7857 166.022 24.7467 165.842 24.671C165.662 24.5952 165.498 24.4842 165.36 24.3443C165.223 24.2044 165.113 24.0383 165.039 23.8555C164.964 23.6727 164.926 23.4767 164.926 23.2789V7.72103C164.926 7.52315 164.964 7.32722 165.039 7.1444C165.113 6.96159 165.223 6.79548 165.36 6.65556C165.498 6.51564 165.662 6.40466 165.842 6.32893C166.022 6.25321 166.214 6.21423 166.409 6.21423H167.85C168.243 6.21423 168.621 6.37298 168.899 6.65556C169.177 6.93814 169.333 7.3214 169.333 7.72103V19.8312C169.333 20.2308 169.49 20.6141 169.768 20.8967C170.046 21.1793 170.423 21.338 170.817 21.338Z" fill="white"/>
    <path d="M213.194 16.9009H209.102C208.697 16.9009 208.308 17.0596 208.021 17.342C207.734 17.6245 207.573 18.0077 207.573 18.4072V19.8329C207.573 20.2324 207.734 20.6155 208.021 20.898C208.308 21.1805 208.697 21.3392 209.102 21.3392H214.484C214.89 21.3392 215.279 21.4979 215.566 21.7803C215.853 22.0628 216.014 22.446 216.014 22.8454V23.2794C216.014 23.6789 215.853 24.062 215.566 24.3445C215.279 24.627 214.89 24.7857 214.484 24.7857H204.558C204.152 24.7857 203.763 24.627 203.476 24.3445C203.189 24.062 203.028 23.6789 203.028 23.2794V7.72053C203.028 7.32103 203.189 6.9379 203.476 6.65542C203.763 6.37293 204.152 6.21423 204.558 6.21423H214.509C214.915 6.21423 215.304 6.37293 215.591 6.65542C215.878 6.9379 216.039 7.32103 216.039 7.72053V8.16684C216.039 8.56633 215.878 8.94946 215.591 9.23195C215.304 9.51443 214.915 9.67313 214.509 9.67313H209.102C208.697 9.67313 208.308 9.83183 208.021 10.1143C207.734 10.3968 207.573 10.7799 207.573 11.1794V12.0844C207.573 12.4839 207.734 12.8671 208.021 13.1495C208.308 13.432 208.697 13.5907 209.102 13.5907H213.194C213.595 13.5923 213.98 13.7492 214.265 14.0275C214.55 14.3058 214.712 14.6832 214.717 15.0784V15.3822C214.719 15.5805 214.681 15.7772 214.605 15.961C214.529 16.1448 214.417 16.312 214.276 16.4531C214.134 16.5942 213.966 16.7064 213.78 16.7832C213.594 16.8601 213.395 16.9001 213.194 16.9009Z" fill="white"/>
    <path d="M242.06 23.2782V7.72243C242.06 7.32269 242.212 6.93933 242.482 6.65667C242.752 6.37402 243.118 6.21522 243.5 6.21522H247.779C249.257 6.19201 250.714 6.57711 252.004 7.33167C253.247 8.06862 254.263 9.1618 254.932 10.4825C255.646 11.885 256.013 13.4523 255.999 15.0414V15.8973C256.024 17.4871 255.669 19.0583 254.968 20.4685C254.307 21.7886 253.302 22.8855 252.07 23.6318C250.809 24.3941 249.377 24.7922 247.921 24.7855H243.524C243.333 24.7887 243.143 24.7522 242.966 24.6779C242.788 24.6037 242.626 24.4932 242.49 24.3529C242.354 24.2126 242.246 24.0453 242.172 23.8608C242.098 23.6763 242.06 23.4783 242.06 23.2782ZM246.339 11.1772V19.8607C246.339 20.2604 246.491 20.6438 246.761 20.9264C247.031 21.2091 247.397 21.3679 247.779 21.3679H247.826C248.369 21.3984 248.91 21.2895 249.403 21.0505C249.896 20.8116 250.325 20.4499 250.653 19.9971C251.313 19.0833 251.641 17.725 251.637 15.9221V15.0848C251.637 13.2902 251.309 11.938 250.653 11.0283C250.316 10.5736 249.878 10.2117 249.377 9.97389C248.877 9.73612 248.328 9.62969 247.779 9.6638C247.589 9.66461 247.402 9.70461 247.227 9.78149C247.052 9.85838 246.894 9.97063 246.76 10.1118C246.627 10.253 246.522 10.4204 246.45 10.6043C246.379 10.7881 246.343 10.985 246.345 11.1834L246.339 11.1772Z" fill="white"/>
</svg>
