<svg width="27" height="31" viewBox="0 0 27 31" fill="none" xmlns="http://www.w3.org/2000/svg">
    <path d="M1.43314 22.669C3.2009 26.3661 7.15868 26.3947 8.01751 26.3589H18.0372C18.9461 26.3947 22.8467 26.3589 24.5929 22.669C25.5691 20.5514 26.0582 18.2423 26.0243 15.9112C26.0243 7.40138 19.075 0 13.0345 0H12.9916C6.95112 0 0.00175005 7.40138 0.00175005 15.904C-0.0332064 18.2376 0.455919 20.5492 1.43314 22.669ZM12.9701 5.54925H13.0488C15.7112 5.54925 18.7744 10.7338 18.7744 14.9815C18.7744 19.2293 15.7184 20.9742 13.0488 20.9813H12.9701C10.3077 20.9813 7.24456 19.2364 7.24456 14.9815C7.24456 10.7266 10.3149 5.5707 12.9701 5.54925Z" fill="white"/>
    <path d="M6.8009 29.7343C6.8009 29.568 6.83367 29.4034 6.89733 29.2499C6.96099 29.0963 7.0543 28.9568 7.17193 28.8392C7.28956 28.7217 7.42921 28.6285 7.5829 28.5649C7.7366 28.5012 7.90132 28.4685 8.06768 28.4685H17.9585C18.1249 28.4685 18.2896 28.5012 18.4433 28.5649C18.597 28.6285 18.7367 28.7217 18.8543 28.8392C18.9719 28.9568 19.0652 29.0963 19.1289 29.2499C19.1926 29.4034 19.2253 29.568 19.2253 29.7343C19.2253 30.0699 19.0919 30.3919 18.8543 30.6293C18.6167 30.8666 18.2945 31 17.9585 31H8.06768C7.73171 31 7.4095 30.8666 7.17193 30.6293C6.93437 30.3919 6.8009 30.0699 6.8009 29.7343Z" fill="white"/>
</svg>
